<svg width="720" height="520" viewBox="0 0 720 520" fill="none" xmlns="http://www.w3.org/2000/svg">
  <rect width="720" height="520" rx="36" fill="#F8FAF8"/>
  <rect x="32" y="32" width="656" height="456" rx="28" fill="url(#bg)"/>
  <circle cx="568" cy="126" r="92" fill="#DDF0EC"/>
  <circle cx="182" cy="392" r="112" fill="#EEF4F8"/>
  <rect x="76" y="84" width="250" height="160" rx="24" fill="#FFFFFF" stroke="#D7E7E3" stroke-width="2"/>
  <text x="108" y="118" fill="#1E656D" font-family="DM Sans, Arial, sans-serif" font-size="17" font-weight="700" letter-spacing="0.08em">ORIENTIERUNG</text>
  <text x="108" y="160" fill="#1C2B3A" font-family="DM Serif Display, Georgia, serif" font-size="30" font-weight="700">Wo stehen Sie</text>
  <text x="108" y="194" fill="#1C2B3A" font-family="DM Serif Display, Georgia, serif" font-size="30" font-weight="700">gerade?</text>
  <text x="108" y="228" fill="#475569" font-family="DM Sans, Arial, sans-serif" font-size="17">Ein Einstieg reicht.</text>

  <g>
    <line x1="338" y1="164" x2="534" y2="164" stroke="#A7D9D5" stroke-width="4" stroke-linecap="round"/>
    <line x1="338" y1="260" x2="522" y2="260" stroke="#A7D9D5" stroke-width="4" stroke-linecap="round"/>
    <line x1="254" y1="332" x2="468" y2="332" stroke="#F3C6C3" stroke-width="4" stroke-linecap="round"/>
  </g>

  <g>
    <rect x="530" y="136" width="112" height="56" rx="18" fill="#FFF4F3" stroke="#F1B4AF" stroke-width="2"/>
    <circle cx="560" cy="164" r="12" fill="#9A3412"/>
    <path d="M560 154L565 164H555L560 154Z" fill="#FFF4F3"/>
    <text x="582" y="170" fill="#9A3412" font-family="DM Sans, Arial, sans-serif" font-size="16" font-weight="700">Akut</text>
  </g>

  <g>
    <rect x="516" y="232" width="126" height="56" rx="18" fill="#FFFFFF" stroke="#D7E7E3" stroke-width="2"/>
    <circle cx="546" cy="260" r="12" fill="#1E656D"/>
    <path d="M546 253C548.8 253 551 255.2 551 258C551 261.4 548.3 264.1 546 267C543.7 264.1 541 261.4 541 258C541 255.2 543.2 253 546 253Z" fill="#E6F4F2"/>
    <text x="568" y="266" fill="#1E656D" font-family="DM Sans, Arial, sans-serif" font-size="16" font-weight="700">Hilfe</text>
  </g>

  <g>
    <rect x="214" y="304" width="132" height="56" rx="18" fill="#FFFFFF" stroke="#D7E7E3" stroke-width="2"/>
    <circle cx="244" cy="332" r="12" fill="#5B7FA5"/>
    <path d="M239 332H249" stroke="#EEF4F8" stroke-width="3" stroke-linecap="round"/>
    <path d="M244 327V337" stroke="#EEF4F8" stroke-width="3" stroke-linecap="round"/>
    <text x="266" y="338" fill="#334155" font-family="DM Sans, Arial, sans-serif" font-size="16" font-weight="700">Verstehen</text>
  </g>

  <g>
    <rect x="474" y="304" width="142" height="56" rx="18" fill="#FFFFFF" stroke="#D7E7E3" stroke-width="2"/>
    <circle cx="504" cy="332" r="12" fill="#0D7A5F"/>
    <path d="M504 324C507 327 509 329 509 333C509 336 506.5 339 504 341C501.5 339 499 336 499 333C499 329 501 327 504 324Z" fill="#E6F4F2"/>
    <text x="526" y="338" fill="#334155" font-family="DM Sans, Arial, sans-serif" font-size="16" font-weight="700">Erschöpfung</text>
  </g>

  <g opacity="0.92">
    <rect x="86" y="300" width="86" height="86" rx="24" fill="#1C2B3A"/>
    <path d="M116 324H142V340H124V352H140V368H116V324Z" fill="#A8E4E8"/>
    <path d="M142 340H154V352H142V340Z" fill="#8DD4D9"/>
    <path d="M142 356H154V368H142V356Z" fill="#8DD4D9"/>
  </g>

  <defs>
    <linearGradient id="bg" x1="88" y1="72" x2="632" y2="448" gradientUnits="userSpaceOnUse">
      <stop stop-color="#FDFEFD"/>
      <stop offset="1" stop-color="#F5F8FB"/>
    </linearGradient>
  </defs>
</svg>
